<?xml version="1.0" encoding="iso-8859-1"?>
<!-- Generator: Adobe Illustrator 19.0.0, SVG Export Plug-In . SVG Version: 6.00 Build 0)  -->
<svg version="1.1" id="Capa_1" xmlns="http://www.w3.org/2000/svg" xmlns:xlink="http://www.w3.org/1999/xlink" x="0px" y="0px"
	 viewBox="0 0 511.998 511.998" style="enable-background:new 0 0 511.998 511.998;" xml:space="preserve">
<path style="fill:#F9C861;" d="M302.574,176.543c19.172-24.872,30.056-55.75,30.056-88.194V23.156h-80.325h-72.978V88.35
	c0,32.444,10.884,63.322,30.056,88.194c12.021,15.594,31.458,41.919,31.458,41.919c4.504,18.187-15.323,46.181-34.06,46.181l0,0
	c-3.418,0-6.19,2.771-6.19,6.19v11.126c0,4.517,3.662,8.179,8.179,8.179h94.414c4.517,0,8.179-3.662,8.179-8.179v-11.126
	c0-3.418-2.771-6.19-6.19-6.19l0,0c-18.737,0-38.563-27.993-34.06-46.181C271.116,218.461,290.553,192.137,302.574,176.543z"/>
<g>
	<path style="fill:#F3A656;" d="M302.574,176.543c19.172-24.872,30.056-55.75,30.056-88.194V23.155h-43.681v65.194
		c0,22.305-6.396,43.808-16.624,63.151c-10.377,19.625-16.081,41.38-16.081,63.579v22.904
		c-4.504,18.187,11.441,26.659,11.441,26.659v17.316c0,4.517-3.662,8.179-8.179,8.179h43.681c4.517,0,8.179-3.662,8.179-8.179
		v-11.126c0-3.418-2.771-6.19-6.19-6.19l0,0c-18.737,0-38.563-27.993-34.06-46.181C271.116,218.461,290.553,192.137,302.574,176.543
		z"/>
	<path style="fill:#F3A656;" d="M279.237,237.983h-45.985c-1.995,0-3.613-1.618-3.613-3.613v-13.422
		c0-1.995,1.618-3.613,3.613-3.613h45.985c1.995,0,3.613,1.618,3.613,3.613v13.422C282.85,236.366,281.232,237.983,279.237,237.983z
		"/>
	<path style="fill:#F3A656;" d="M339.437,31.737H172.561c-3.277,0-5.933-2.656-5.933-5.933V13.435c0-3.277,2.656-5.933,5.933-5.933
		h166.876c3.277,0,5.933,2.656,5.933,5.933v12.369C345.37,29.08,342.714,31.737,339.437,31.737z"/>
</g>
<path style="fill:#ED864A;" d="M339.437,7.502h-38.332v24.234h38.332c3.276,0,5.933-2.656,5.933-5.933V13.435
	C345.37,10.159,342.714,7.502,339.437,7.502z"/>
<path style="fill:#E1EFFB;" d="M478.556,394.823H338.298c-3.595,0-6.509-2.914-6.509-6.509v-98.351c0-2.659-2.155-4.814-4.814-4.814
	H185.023c-2.659,0-4.814,2.155-4.814,4.814v98.351c0,3.595-2.914,6.509-6.509,6.509H33.442c-2.659,0-4.814,2.155-4.814,4.814
	v100.046c0,2.659,2.155,4.814,4.814,4.814h445.114c2.659,0,4.814-2.155,4.814-4.814V399.637
	C483.37,396.978,481.215,394.823,478.556,394.823z"/>
<g>
	<path style="fill:#CCDFED;" d="M286.775,289.962v98.351c0,3.595,2.914,6.509,6.509,6.509h45.015c-3.595,0-6.509-2.914-6.509-6.509
		v-98.351c0-2.659-2.155-4.814-4.814-4.814h-45.015C284.619,285.148,286.775,287.304,286.775,289.962z"/>
	<path style="fill:#CCDFED;" d="M478.556,394.823h-45.015c2.659,0,4.814,2.155,4.814,4.814v100.046c0,2.659-2.155,4.814-4.814,4.814
		h45.015c2.659,0,4.814-2.155,4.814-4.814V399.637C483.37,396.978,481.215,394.823,478.556,394.823z"/>
</g>
<path d="M105.784,474.009c-6.402,0-10.404-2.801-10.404-7.303c0-3.201-1.4-4.601-6.702-4.601c-4.502,0-6.203,1.1-6.203,5.101
	c0,8.103,6.603,18.207,23.009,18.207c13.205,0,24.009-6.102,24.009-22.208v-1.9c0-8.303-4.302-12.805-10.204-15.106
	c4.902-2.301,7.803-8.703,7.803-16.606c0-13.305-9.003-17.907-21.108-17.907c-16.906,0-21.908,10.304-21.908,17.407
	c0,4.202,0.901,5.601,6.703,5.601c4.802,0,6.202-2.001,6.202-5.002c0-4.001,2.401-6.702,8.903-6.702
	c5.402,0,8.804,2.201,8.804,8.804c0,8.603-4.202,9.803-9.204,9.803c-2.901,0-3.902,2.601-3.902,5.102
	c0,2.601,1.001,5.102,3.902,5.102c6.402,0,11.004,2.1,11.004,9.504v1.9C116.487,470.808,113.286,474.009,105.784,474.009z"/>
<path d="M386.773,471.008v9.703c0,2.502,3.402,4.102,5.702,4.102h35.614c2.2,0,4.101-2.801,4.101-5.803
	c0-3.001-1.901-5.601-4.101-5.601h-27.81v-2.401c0-10.404,31.712-17.407,31.712-39.015c0-12.705-10.804-20.308-22.409-20.308
	c-11.104,0-21.508,7.002-21.508,18.407c0,5.402,2.501,7.002,5.902,7.002c4.302,0,6.803-2.401,6.803-4.801
	c0-6.202,4.001-8.804,8.903-8.804c6.603,0,9.304,4.801,9.304,8.903C418.986,446.499,386.773,455.002,386.773,471.008z"/>
<path d="M257.581,376.779c3.201,0,6.503-1.401,6.503-4.102v-65.025c0-2.6-3.102-4.202-5.802-4.202c-1.1,0-2.001,0.401-2.701,1
	l-11.805,9.004c-1.601,1-2.501,2.901-2.501,4.702c0,2.6,1.701,5.202,4.202,5.202c0.7,0,1.601-0.2,2.401-0.901l3.201-3.201v53.421
	C251.078,375.378,254.279,376.779,257.581,376.779z"/>
<path d="M478.556,387.321H339.292v-30.185c0-4.144-3.359-7.502-7.502-7.502s-7.502,3.359-7.502,7.502v31.178
	c0,7.726,6.286,14.011,14.012,14.011h137.569v94.669H36.13v-94.669h137.569c7.726,0,14.012-6.285,14.012-14.011V292.65l0,0h136.576
	l0,0v29.641c0,4.144,3.359,7.502,7.502,7.502s7.502-3.359,7.502-7.502v-32.33c0-6.791-5.525-12.316-12.316-12.316h-8.107v-6.814
	c0-7.549-6.143-13.692-13.692-13.692c-6.387,0-14.21-5.56-19.873-13.467c3.036-1.987,5.05-5.412,5.05-9.303v-13.421
	c0-3.831-1.948-7.215-4.906-9.215c6.767-9.094,16.12-21.595,23.07-30.61c4.075-5.286,7.777-10.835,11.104-16.592
	c24.856-16.695,40.393-39.581,49.316-56.747c11.648-22.409,16.367-43.061,16.697-51.475c0.111-2.816-0.951-5.601-2.912-7.642
	c-1.993-2.073-4.796-3.262-7.689-3.262h-34.9v-6.201c7.084-0.365,12.739-6.227,12.739-13.4V13.435
	C352.872,6.027,346.845,0,339.437,0H172.561c-7.408,0-13.435,6.027-13.435,13.435v12.369c0,7.16,5.634,13.013,12.7,13.398v6.204
	h-34.86c-2.894,0-5.696,1.189-7.689,3.262c-1.962,2.041-3.023,4.826-2.912,7.641c0.568,14.48,14.479,77.911,67.508,110.816
	c2.922,4.832,6.111,9.511,9.57,13.998c6.988,9.065,16.467,21.736,23.259,30.865c-2.761,2.024-4.565,5.282-4.565,8.96v13.421
	c0,3.735,1.858,7.039,4.692,9.056c-5.676,8.037-13.593,13.714-20.046,13.714c-7.55,0-13.692,6.143-13.692,13.692v6.814h-8.068
	c-6.791,0-12.316,5.525-12.316,12.316v97.359H33.442c-6.791,0-12.316,5.525-12.316,12.316v100.046
	c0,6.791,5.525,12.316,12.316,12.316h445.114c6.791,0,12.316-5.525,12.316-12.316V399.637
	C490.873,392.846,485.347,387.321,478.556,387.321z M340.133,88.349V60.41h29.935c-1.442,8.313-5.712,23.652-14.445,40.454
	c-4.976,9.572-12.212,21.098-22.223,32.035C337.819,118.513,340.133,103.476,340.133,88.349z M155.194,101.021
	c-7.9-16.112-12.005-31.657-13.348-40.611h29.979v27.939c0,16.351,2.701,32.597,7.847,48.028
	C168.244,124.503,160.369,111.576,155.194,101.021z M215.326,171.962c-18.376-23.837-28.496-53.532-28.496-83.613v-49.11h13.775
	c4.143,0,7.502-3.359,7.502-7.502s-3.359-7.502-7.502-7.502H174.13v-9.23h163.737v9.23h-102.25c-4.143,0-7.502,3.359-7.502,7.502
	s3.359,7.502,7.502,7.502h89.51v49.11c0,30.081-10.12,59.776-28.496,83.613c-9.092,11.794-22.229,29.459-28.464,37.871h-24.378
	C237.544,201.406,224.38,183.708,215.326,171.962z M275.347,224.838v5.643h-1.782h-35.173h-1.252v-5.643h2.869h31.939H275.347z
	 M208.095,272.113c14.539-0.712,27.878-13.14,35.033-26.627h25.702c7.156,13.487,20.494,25.915,35.033,26.627v5.533h-95.768
	L208.095,272.113L208.095,272.113z"/>
<g>
</g>
<g>
</g>
<g>
</g>
<g>
</g>
<g>
</g>
<g>
</g>
<g>
</g>
<g>
</g>
<g>
</g>
<g>
</g>
<g>
</g>
<g>
</g>
<g>
</g>
<g>
</g>
<g>
</g>
</svg>
